<svg width="24" height="24" viewBox="0 0 23 23">
<path d="M11.25 0C12.2812 0 13.2734 0.136719 14.2266 0.410156C15.1875 0.675781 16.0859 1.05469 16.9219 1.54688C17.7578 2.03125 18.5156 2.61719 19.1953 3.30469C19.8828 3.98438 20.4688 4.74219 20.9531 5.57812C21.4453 6.41406 21.8242 7.3125 22.0898 8.27344C22.3633 9.22656 22.5 10.2188 22.5 11.25C22.5 12.2812 22.3633 13.2773 22.0898 14.2383C21.8242 15.1914 21.4453 16.0859 20.9531 16.9219C20.4688 17.7578 19.8828 18.5195 19.1953 19.207C18.5156 19.8867 17.7578 20.4727 16.9219 20.9648C16.0859 21.4492 15.1875 21.8281 14.2266 22.1016C13.2734 22.3672 12.2812 22.5 11.25 22.5C10.2188 22.5 9.22266 22.3672 8.26172 22.1016C7.30859 21.8281 6.41406 21.4492 5.57812 20.9648C4.74219 20.4727 3.98047 19.8867 3.29297 19.207C2.61328 18.5195 2.02734 17.7578 1.53516 16.9219C1.05078 16.0859 0.671875 15.1914 0.398438 14.2383C0.132812 13.2773 0 12.2812 0 11.25C0 10.2188 0.132812 9.22656 0.398438 8.27344C0.671875 7.3125 1.05078 6.41406 1.53516 5.57812C2.02734 4.74219 2.61328 3.98438 3.29297 3.30469C3.98047 2.61719 4.74219 2.03125 5.57812 1.54688C6.41406 1.05469 7.30859 0.675781 8.26172 0.410156C9.22266 0.136719 10.2188 0 11.25 0ZM11.25 21C12.1484 21 13.0117 20.8828 13.8398 20.6484C14.668 20.4141 15.4414 20.0859 16.1602 19.6641C16.8867 19.2422 17.5469 18.7344 18.1406 18.1406C18.7344 17.5469 19.2422 16.8906 19.6641 16.1719C20.0859 15.4453 20.4141 14.668 20.6484 13.8398C20.8828 13.0117 21 12.1484 21 11.25C21 10.3516 20.8828 9.48828 20.6484 8.66016C20.4141 7.83203 20.0859 7.05859 19.6641 6.33984C19.2422 5.61328 18.7344 4.95313 18.1406 4.35938C17.5469 3.76562 16.8867 3.25781 16.1602 2.83594C15.4414 2.41406 14.668 2.08594 13.8398 1.85156C13.0117 1.61719 12.1484 1.5 11.25 1.5C10.3516 1.5 9.48828 1.61719 8.66016 1.85156C7.83203 2.08594 7.05469 2.41406 6.32812 2.83594C5.60938 3.25781 4.95312 3.76562 4.35938 4.35938C3.76562 4.95313 3.25781 5.61328 2.83594 6.33984C2.41406 7.05859 2.08594 7.83203 1.85156 8.66016C1.61719 9.48828 1.5 10.3516 1.5 11.25C1.5 12.1484 1.61719 13.0117 1.85156 13.8398C2.08594 14.668 2.41406 15.4453 2.83594 16.1719C3.25781 16.8906 3.76562 17.5469 4.35938 18.1406C4.95312 18.7344 5.60938 19.2422 6.32812 19.6641C7.05469 20.0859 7.83203 20.4141 8.66016 20.6484C9.48828 20.8828 10.3516 21 11.25 21ZM11.9766 9.12891C12.2031 9.20703 12.4102 9.31641 12.5977 9.45703C12.7852 9.59766 12.9453 9.76172 13.0781 9.94922C13.2109 10.1367 13.3125 10.3398 13.3828 10.5586C13.4609 10.7773 13.5 11.0078 13.5 11.25C13.5 11.5625 13.4414 11.8555 13.3242 12.1289C13.207 12.4023 13.0469 12.6406 12.8438 12.8438C12.6406 13.0469 12.4023 13.207 12.1289 13.3242C11.8555 13.4414 11.5625 13.5 11.25 13.5C10.9375 13.5 10.6445 13.4414 10.3711 13.3242C10.0977 13.207 9.85938 13.0469 9.65625 12.8438C9.45312 12.6406 9.29297 12.4023 9.17578 12.1289C9.05859 11.8555 9 11.5625 9 11.25C9 11.0078 9.03516 10.7773 9.10547 10.5586C9.18359 10.3398 9.28906 10.1367 9.42188 9.94922C9.55469 9.76172 9.71484 9.59766 9.90234 9.45703C10.0898 9.31641 10.2969 9.20703 10.5234 9.12891H10.5V3.03516H12V9.12891H11.9766ZM11.25 12C11.4531 12 11.6289 11.9258 11.7773 11.7773C11.9258 11.6289 12 11.4531 12 11.25C12 11.0469 11.9258 10.8711 11.7773 10.7227C11.6289 10.5742 11.4531 10.5 11.25 10.5C11.0469 10.5 10.8711 10.5742 10.7227 10.7227C10.5742 10.8711 10.5 11.0469 10.5 11.25C10.5 11.4531 10.5742 11.6289 10.7227 11.7773C10.8711 11.9258 11.0469 12 11.25 12ZM14.1328 3.53906C14.9453 3.84375 15.6797 4.25391 16.3359 4.76953C17 5.28516 17.5625 5.87891 18.0234 6.55078C18.4922 7.22266 18.8516 7.95703 19.1016 8.75391C19.3594 9.55078 19.4883 10.3828 19.4883 11.25C19.4883 12.3516 19.2812 13.4062 18.8672 14.4141C18.4609 15.4141 17.8672 16.3047 17.0859 17.0859L16.0195 16.0195C16.6523 15.3867 17.1406 14.6602 17.4844 13.8398C17.8281 13.0117 18 12.1484 18 11.25C18 10.5469 17.8945 9.87109 17.6836 9.22266C17.4727 8.56641 17.1758 7.96484 16.793 7.41797C16.4102 6.86328 15.9492 6.375 15.4102 5.95312C14.8711 5.52344 14.2734 5.1875 13.6172 4.94531L14.1328 3.53906ZM3 11.25C3 10.3828 3.125 9.55078 3.375 8.75391C3.63281 7.95703 3.99609 7.22266 4.46484 6.55078C4.93359 5.87891 5.49609 5.28516 6.15234 4.76953C6.81641 4.25391 7.55469 3.84375 8.36719 3.53906L8.88281 4.94531C8.22656 5.1875 7.62891 5.52344 7.08984 5.95312C6.55078 6.375 6.08984 6.86328 5.70703 7.41797C5.32422 7.96484 5.02734 8.56641 4.81641 9.22266C4.60547 9.87109 4.5 10.5469 4.5 11.25C4.5 12.1484 4.67188 13.0117 5.01562 13.8398C5.35938 14.6602 5.84766 15.3867 6.48047 16.0195L5.41406 17.0859C4.63281 16.3047 4.03516 15.4141 3.62109 14.4141C3.20703 13.4062 3 12.3516 3 11.25Z"></path>
</svg>