<svg width="24" height="24" viewBox="0 0 16 12">
        <path d="M12 3C12 3.41667 11.9219 3.80729 11.7656 4.17188C11.6094 4.53125 11.3932 4.84896 11.1172 5.125C10.8464 5.39583 10.5286 5.60938 10.1641 5.76562C9.79948 5.92188 9.41146 6 9 6H0V5H9C9.27604 5 9.53385 4.94792 9.77344 4.84375C10.0182 4.73958 10.2318 4.59635 10.4141 4.41406C10.5964 4.23177 10.7396 4.02083 10.8438 3.78125C10.9479 3.53646 11 3.27604 11 3C11 2.72396 10.9479 2.46615 10.8438 2.22656C10.7396 1.98177 10.5964 1.76823 10.4141 1.58594C10.2318 1.40365 10.0182 1.26042 9.77344 1.15625C9.53385 1.05208 9.27604 1 9 1C8.72396 1 8.46354 1.05208 8.21875 1.15625C7.97917 1.26042 7.76823 1.40365 7.58594 1.58594C7.40365 1.76823 7.26042 1.98177 7.15625 2.22656C7.05208 2.46615 7 2.72396 7 3H6C6 2.58854 6.07812 2.20052 6.23438 1.83594C6.39062 1.47135 6.60417 1.15365 6.875 0.882812C7.15104 0.606771 7.46875 0.390625 7.82812 0.234375C8.19271 0.078125 8.58333 0 9 0C9.41146 0 9.79948 0.078125 10.1641 0.234375C10.5286 0.390625 10.8464 0.606771 11.1172 0.882812C11.3932 1.15365 11.6094 1.47135 11.7656 1.83594C11.9219 2.20052 12 2.58854 12 3ZM14 5C14.276 5 14.5339 5.05208 14.7734 5.15625C15.0182 5.26042 15.2318 5.40365 15.4141 5.58594C15.5964 5.76823 15.7396 5.98177 15.8438 6.22656C15.9479 6.46615 16 6.72396 16 7C16 7.27604 15.9479 7.53646 15.8438 7.78125C15.7396 8.02083 15.5964 8.23177 15.4141 8.41406C15.2318 8.59635 15.0182 8.73958 14.7734 8.84375C14.5339 8.94792 14.276 9 14 9H12.7344C12.9115 9.30208 13 9.63542 13 10C13 10.276 12.9479 10.5365 12.8438 10.7812C12.7396 11.0208 12.5964 11.2318 12.4141 11.4141C12.2318 11.5964 12.0182 11.7396 11.7734 11.8438C11.5339 11.9479 11.276 12 11 12C10.724 12 10.4635 11.9479 10.2188 11.8438C9.97917 11.7396 9.76823 11.5964 9.58594 11.4141C9.40365 11.2318 9.26042 11.0208 9.15625 10.7812C9.05208 10.5365 9 10.276 9 10H10C10 10.1406 10.026 10.2708 10.0781 10.3906C10.1302 10.5104 10.2005 10.6172 10.2891 10.7109C10.3828 10.7995 10.4896 10.8698 10.6094 10.9219C10.7292 10.974 10.8594 11 11 11C11.1406 11 11.2708 10.974 11.3906 10.9219C11.5104 10.8698 11.6146 10.7995 11.7031 10.7109C11.7969 10.6172 11.8698 10.5104 11.9219 10.3906C11.974 10.2708 12 10.1406 12 10C12 9.85938 11.974 9.72917 11.9219 9.60938C11.8698 9.48958 11.7969 9.38542 11.7031 9.29688C11.6146 9.20312 11.5104 9.13021 11.3906 9.07812C11.2708 9.02604 11.1406 9 11 9H0V8H11H14C14.1406 8 14.2708 7.97396 14.3906 7.92188C14.5104 7.86979 14.6146 7.79948 14.7031 7.71094C14.7969 7.61719 14.8698 7.51042 14.9219 7.39062C14.974 7.27083 15 7.14062 15 7C15 6.85938 14.974 6.72917 14.9219 6.60938C14.8698 6.48958 14.7969 6.38542 14.7031 6.29688C14.6146 6.20312 14.5104 6.13021 14.3906 6.07812C14.2708 6.02604 14.1406 6 14 6C13.8594 6 13.7292 6.02604 13.6094 6.07812C13.4896 6.13021 13.3828 6.20312 13.2891 6.29688C13.2005 6.38542 13.1302 6.48958 13.0781 6.60938C13.026 6.72917 13 6.85938 13 7H12C12 6.72396 12.0521 6.46615 12.1562 6.22656C12.2604 5.98177 12.4036 5.76823 12.5859 5.58594C12.7682 5.40365 12.9792 5.26042 13.2188 5.15625C13.4635 5.05208 13.724 5 14 5Z"></path>
     </svg>